<svg width="500" height="350" viewBox="0 0 500 350" fill="none" xmlns="http://www.w3.org/2000/svg">
  <rect width="500" height="350" rx="12" fill="#F9FAFB"/>
  <rect x="50" y="50" width="400" height="250" rx="8" fill="white" stroke="#E5E7EB" stroke-width="2"/>
  <rect x="70" y="70" width="360" height="40" rx="4" fill="#F3F4F6"/>
  <rect x="80" y="82" width="120" height="16" rx="2" fill="#D1D5DB"/>
  <rect x="70" y="130" width="360" height="30" rx="4" fill="#EEF2FF"/>
  <rect x="80" y="140" width="340" height="10" rx="2" fill="#C7D2FE"/>
  <rect x="70" y="170" width="360" height="30" rx="4" fill="#F3F4F6"/>
  <rect x="80" y="180" width="340" height="10" rx="2" fill="#D1D5DB"/>
  <rect x="70" y="210" width="360" height="30" rx="4" fill="#EEF2FF"/>
  <rect x="80" y="220" width="340" height="10" rx="2" fill="#C7D2FE"/>
  <rect x="70" y="250" width="180" height="30" rx="4" fill="#4F46E5"/>
  <rect x="80" y="260" width="100" height="10" rx="2" fill="#818CF8"/>
  <circle cx="400" cy="82" r="12" fill="#4F46E5"/>
  <path d="M395 82L400 87L405 82" stroke="white" stroke-width="2" stroke-linecap="round" stroke-linejoin="round"/>
  <circle cx="400" cy="140" r="12" fill="#4F46E5"/>
  <path d="M395 140L400 145L405 140" stroke="white" stroke-width="2" stroke-linecap="round" stroke-linejoin="round"/>
  <circle cx="400" cy="220" r="12" fill="#4F46E5"/>
  <path d="M395 220L400 225L405 220" stroke="white" stroke-width="2" stroke-linecap="round" stroke-linejoin="round"/>
</svg>

