<svg width="500" height="350" viewBox="0 0 500 350" fill="none" xmlns="http://www.w3.org/2000/svg">
  <rect width="500" height="350" rx="12" fill="#F9FAFB"/>
  <rect x="150" y="50" width="200" height="250" rx="8" fill="white" stroke="#E5E7EB" stroke-width="2"/>
  
  <!-- Chrome Web Store Header -->
  <rect x="150" y="50" width="200" height="40" rx="8 8 0 0" fill="#4F46E5"/>
  <circle cx="170" cy="70" r="10" fill="#818CF8"/>
  <rect x="190" y="65" width="100" height="10" rx="2" fill="#818CF8"/>
  
  <!-- Extension Card -->
  <rect x="170" y="100" width="160" height="80" rx="4" fill="#F3F4F6"/>
  <rect x="180" y="110" width="40" height="40" rx="4" fill="#4F46E5"/>
  <path d="M190 130L195 135L210 120" stroke="white" stroke-width="2" stroke-linecap="round" stroke-linejoin="round"/>
  <rect x="230" y="115" width="90" height="10" rx="2" fill="#D1D5DB"/>
  <rect x="230" y="135" width="70" height="10" rx="2" fill="#D1D5DB"/>
  
  <!-- Add to Chrome Button -->
  <rect x="230" y="155" width="90" height="15" rx="4" fill="#4F46E5"/>
  <rect x="245" y="158" width="60" height="8" rx="2" fill="#818CF8"/>
  
  <!-- Settings Section -->
  <rect x="170" y="190" width="160" height="80" rx="4" fill="#EEF2FF"/>
  <circle cx="190" cy="210" r="10" fill="#4F46E5"/>
  <rect x="210" y="205" width="100" height="10" rx="2" fill="#C7D2FE"/>
  
  <!-- Toggle Switches -->
  <rect x="210" y="225" width="30" height="15" rx="7.5" fill="#4F46E5"/>
  <circle cx="230" cy="232.5" r="6" fill="white"/>
  
  <rect x="210" y="250" width="30" height="15" rx="7.5" fill="#D1D5DB"/>
  <circle cx="217" cy="257.5" r="6" fill="white"/>
  
  <!-- Notification Badge -->
  <circle cx="320" cy="70" r="15" fill="#EF4444"/>
  <text x="320" y="75" font-family="Arial" font-size="12" fill="white" text-anchor="middle">1</text>
</svg>

